<?xml version="1.0" encoding="utf-8"?>
<!-- Generator: Adobe Illustrator 18.1.1, SVG Export Plug-In . SVG Version: 6.00 Build 0)  -->
<svg version="1.1" id="Layer_1" xmlns="http://www.w3.org/2000/svg" xmlns:xlink="http://www.w3.org/1999/xlink" x="0px" y="0px"
	 viewBox="0 0 22 22.0000362" style="enable-background:new 0 0 22 22.0000362;" xml:space="preserve">
<style type="text/css">
	.st0{fill:#DCDCDC;}
</style>
<g>
	<path class="st0" d="M11.0000229,7.0017362c-2.2022047,0-3.9982667,1.796061-3.9982667,3.9983039
		c0,3.1299429,3.6444888,5.4558811,6.9159551,2.9172077C16.4557514,10.6458139,14.1298437,7.0017362,11.0000229,7.0017362
		L11.0000229,7.0017362z M19.9003067,9.99891c-0.5024529-4.1982865-3.8033562-7.4991522-7.8991156-7.8991156V0.0000026H9.99893
		v2.0997915C5.8006439,2.499758,2.499778,5.8006234,2.0998142,9.99891H0.0000607v2.0022602h2.0997536
		c0.4974184,4.1982489,3.7983224,7.4991522,7.8991156,7.8991156v2.0997543h2.0022612v-2.0997543
		c4.198287-0.5024529,7.4991522-3.803318,7.8991156-7.8991156h2.0997543V9.99891H19.9003067z M11.0000229,17.9954796
		c-5.389535,0-9.2520971-5.9075785-5.5186524-11.6868725C5.6936498,5.9800034,5.9802547,5.693409,6.308867,5.4811425
		c5.7792373-3.7330892,11.6866722,0.1294098,11.6866722,5.5188975
		C17.9955387,14.9008512,14.9008722,17.9954796,11.0000229,17.9954796L11.0000229,17.9954796z M11.0000229,17.9954796"/>
</g>
</svg>
