<?xml version="1.0" encoding="utf-8"?>
<!-- Generator: Adobe Illustrator 18.1.1, SVG Export Plug-In . SVG Version: 6.00 Build 0)  -->
<svg version="1.1" id="Layer_1" xmlns="http://www.w3.org/2000/svg" xmlns:xlink="http://www.w3.org/1999/xlink" x="0px" y="0px"
	 viewBox="0 0 22 21.9997139" style="enable-background:new 0 0 22 21.9997139;" xml:space="preserve">
<style type="text/css">
	.st0{fill:#C84700;}
</style>
<path class="st0" d="M0.0000607,11.0001173c0,6.0772009,4.9225416,10.9995985,11,10.9995985l0,0
	c6.0774574,0,11-4.9223976,11-10.9995985l0,0c0-6.0777164-4.9225426-11.0001144-11-11.0001144l0,0
	C4.9226022,0.0000026,0.0000607,4.922401,0.0000607,11.0001173 M14.4098692,5.4595118l2.0902624,2.0896902l-3.4240732,3.4375086
	l3.3823938,3.3686733l-2.1034117,2.1042414l-3.3826809-3.3826799l-3.3688154,3.3826799L5.499989,14.3553839l3.3825374-3.3686733
	L5.4450173,7.549202l2.1034122-2.0896902l3.4239302,3.4229565L14.4098692,5.4595118z"/>
</svg>
