<?xml version="1.0" encoding="utf-8"?>
<!-- Generator: Adobe Illustrator 19.1.0, SVG Export Plug-In . SVG Version: 6.00 Build 0)  -->
<svg version="1.1" id="Layer_1" xmlns="http://www.w3.org/2000/svg" xmlns:xlink="http://www.w3.org/1999/xlink" x="0px" y="0px"
	 viewBox="0 0 72 11.3919039" style="enable-background:new 0 0 72 11.3919039;" xml:space="preserve">
<style type="text/css">
	.st0{fill:#010101;}
</style>
<path class="st0" d="M15.1753559,4.1595716l-1.5994349,2.2106605c0.1259174,0.2373133,0.2039871,0.503859,0.2039871,0.7912254
	c0,0.9385076-0.7608099,1.6993489-1.6992846,1.6993489c-0.9385023,0-1.699317-0.7608414-1.699317-1.6993489
	s0.7608147-1.699317,1.699317-1.699317c0.0569935,0,0.1108847,0.011322,0.1664715,0.0167909l1.594285-2.2035277
	c-0.5275908-0.2199147-1.1162367-0.342921-1.7481871-0.342921c-2.4872484,0-4.3295612,1.9191356-4.3295612,4.2374182v0.0304799
	c0,2.303123,1.8269978,4.1914907,4.2987938,4.1914907c2.5025682,0,4.3450451-1.9189758,4.3450451-4.2219706V7.1391654
	C16.4074707,5.9763303,15.9474554,4.9220448,15.1753559,4.1595716z"/>
<path class="st0" d="M0,0.4605542h1.888528v9.0276613h5.6499443v1.7194023H0V0.4605542z"/>
<path class="st0" d="M16.9330101,7.2003808v-0.030448c0-2.3029947,1.7809048-4.2374182,4.2066555-4.2374182
	c1.5354309,0,2.4872742,0.5679529,3.2395134,1.3970466l-1.1514168,1.2435603
	c-0.5681458-0.5987525-1.1668663-1.0132194-2.1034222-1.0132194c-1.3511505,0-2.3337307,1.1667371-2.3337307,2.5792632v0.0307674
	c0,1.4431338,0.9980602,2.6099992,2.4258728,2.6099992c0.8751812,0,1.519989-0.4147549,2.1034222-1.0135069l1.1208096,1.1056499
	c-0.7984848,0.8904686-1.7350101,1.5198288-3.3163738,1.5198288C18.7139149,11.3919039,16.9330101,9.5035353,16.9330101,7.2003808z"
	/>
<path class="st0" d="M25.1308155,8.2598152V3.1013207h1.8577538v4.6059895c0,1.2586884,0.6295204,1.9805112,1.7348499,1.9805112
	c1.0747547,0,1.8269939-0.7524309,1.8269939-2.0114388V3.1013207h1.8577595v8.1062965h-1.8577595V9.9486103
	c-0.5218983,0.7677174-1.2743282,1.4279737-2.5331764,1.4279737C26.1900902,11.3765841,25.1308155,10.1481838,25.1308155,8.2598152z
	"/>
<path class="st0" d="M33.1596451,10.1481838l0.8290939-1.2586889c0.8751488,0.659936,1.826992,0.9979,2.656086,0.9979
	c0.7983246,0,1.2590141-0.3379641,1.2590141-0.8751812V8.9816065c0-0.6296482-0.8598671-0.8445415-1.8116798-1.1362581
	c-1.197506-0.3376436-2.5333366-0.8289332-2.5333366-2.3796577V5.4349232c0-1.5352767,1.2742958-2.4718008,2.8864288-2.4718008
	c1.0133476,0,2.1187134,0.3530915,2.978569,0.9212043L38.6868706,5.204742
	c-0.7830315-0.4760017-1.612133-0.7677183-2.2877083-0.7677183c-0.7214699,0-1.136097,0.3377719-1.136097,0.8137736V5.281405
	c0,0.5834327,0.8751488,0.8290935,1.826992,1.1361299c1.1821861,0.3685389,2.5180168,0.9059162,2.5180168,2.3644981v0.0306072
	c0,1.7040825-1.320385,2.5486555-3.0093384,2.5486555C35.447319,11.3612957,34.173027,10.9468288,33.1596451,10.1481838z"/>
<path class="st0" d="M40.9278488,0.4605542h1.2129517v9.6264143h6.0490913v1.1206493h-7.262043V0.4605542z"/>
<path class="st0" d="M48.7110214,8.9047832V8.8738556c0-1.7039227,1.381794-2.5943913,3.3930397-2.5943913
	c1.0132179,0,1.7195625,0.1380706,2.4257431,0.3378038V6.3716073c0-1.4125261-0.8596992-2.149477-2.3490486-2.149477
	c-0.9365578,0-1.6735077,0.2301812-2.4104576,0.5679851l-0.3530922-0.9671319
	c0.8751831-0.399179,1.7195702-0.6756074,2.8864288-0.6756074c1.1208076,0,1.9958305,0.3070362,2.5639496,0.8751807
	c0.5526886,0.5526652,0.8290863,1.3203835,0.8290863,2.3336024v4.8514585h-1.1668663v-1.1821852
	c-0.5526657,0.7061834-1.45858,1.3511515-2.8556595,1.3511515C50.1849251,11.3765841,48.7110214,10.5320425,48.7110214,8.9047832z
	 M54.5450935,8.2907429V7.5536323c-0.5832672-0.1689658-1.3509903-0.3376436-2.3182831-0.3376436
	c-1.4738998,0-2.3182831,0.6446795-2.3182831,1.5966516v0.0306082c0,0.9978991,0.9212112,1.5813637,1.9959602,1.5813637
	C53.3629417,10.424612,54.5450935,9.5494308,54.5450935,8.2907429z"/>
<path class="st0" d="M58.4595871,9.6878214v1.5197964h-1.1821938V0h1.1821938v4.8669381
	c0.6448021-0.9518437,1.5814857-1.7656174,3.0397797-1.7656174c1.9039726,0,3.7923431,1.5046687,3.7923431,4.1146679v0.0306077
	c0,2.5945511-1.8730507,4.1299877-3.7923431,4.1299877C60.0254707,11.3765841,59.0736198,10.5782576,58.4595871,9.6878214z
	 M64.0789185,7.2619162V7.2313085c0-1.8730803-1.2896194-3.0705533-2.794445-3.0705533
	c-1.4739037,0-2.8709412,1.2435603-2.8709412,3.0552335v0.0306077c0,1.8424721,1.3970375,3.0705528,2.8709412,3.0705528
	C62.8199081,10.3171492,64.0789185,9.1812115,64.0789185,7.2619162z"/>
<path class="st0" d="M65.8895416,10.1943989l0.5987167-0.8445415c0.8598557,0.644968,1.8115387,1.0135393,2.7482224,1.0135393
	c0.951683,0,1.642868-0.4913216,1.642868-1.2590399V9.0737486c0-0.7986135-0.9366837-1.1056495-1.9807968-1.397366
	c-1.2434006-0.3529315-2.6251602-0.7828779-2.6251602-2.2414594V5.4043155c0-1.3664708,1.1359406-2.2722273,2.7019806-2.2722273
	c0.9672928,0,2.0420456,0.3376439,2.8556595,0.874989L71.2938156,4.897706
	c-0.7371063-0.4760022-1.5813293-0.7677183-2.3490524-0.7677183c-0.936676,0-1.5354309,0.4912896-1.5354309,1.1514173v0.0307674
	c0,0.7522707,0.9826126,1.0439868,2.0420456,1.3664708C70.6794586,7.0470228,72,7.5230246,72,8.9507103v0.0308962
	c0,1.504509-1.2436905,2.3796892-2.8250504,2.3796892C68.0390091,11.3612957,66.7799683,10.9159012,65.8895416,10.1943989z"/>
</svg>
