<?xml version="1.0" encoding="utf-8"?>
<!-- Generator: Adobe Illustrator 20.1.0, SVG Export Plug-In . SVG Version: 6.00 Build 0)  -->
<svg version="1.1" id="Layer_1" xmlns="http://www.w3.org/2000/svg" xmlns:xlink="http://www.w3.org/1999/xlink" x="0px" y="0px"
	 width="83.5px" height="121.9px" viewBox="0 0 83.5 121.9" style="enable-background:new 0 0 83.5 121.9;" xml:space="preserve">
<style type="text/css">
	.st0{fill:url(#SVGID_1_);}
	.st1{fill:#3F7B3C;}
	.st2{fill:#FFFFFF;}
</style>
<g>
	
		<linearGradient id="SVGID_1_" gradientUnits="userSpaceOnUse" x1="41.733" y1="121.79" x2="41.733" y2="-0.143" gradientTransform="matrix(1 0 0 -1 0 121.79)">
		<stop  offset="0" style="stop-color:#99C44D"/>
		<stop  offset="1" style="stop-color:#408F43"/>
	</linearGradient>
	<path class="st0" d="M83.5,40.8C83.5,18.2,64.8,0,41.7,0S0,18.2,0,40.8c0,21.5,41.9,81.2,41.9,81.2S83.5,62.2,83.5,40.8z"/>
</g>
<ellipse class="st1" cx="41.7" cy="39.8" rx="31.3" ry="30.6"/>
<g>
	<path class="st2" d="M23.6,33.2V51c0,1.4,1.1,2.5,2.5,2.5h2.2V30.6h-2.2C24.8,30.6,23.6,31.8,23.6,33.2z"/>
	<path class="st2" d="M57.3,30.6h-2.2v22.9h2.2c1.4,0,2.5-1.1,2.5-2.5V33.2C59.8,31.8,58.7,30.6,57.3,30.6z"/>
	<path class="st2" d="M48.2,27.3c0-0.7-0.5-1.3-1.2-1.3H36.5c-0.7,0-1.2,0.6-1.2,1.3v3.3h-4.6v22.9h22.2V30.6h-4.6V27.3z M36.5,28.7
		c0-0.5,0.4-0.9,0.8-0.9h8.7c0.5,0,0.8,0.4,0.8,0.9v1.9H36.5L36.5,28.7L36.5,28.7z"/>
</g>
</svg>
