<?xml version="1.0" encoding="utf-8"?>
<!-- Generator: Adobe Illustrator 19.1.0, SVG Export Plug-In . SVG Version: 6.00 Build 0)  -->
<svg version="1.1" id="Layer_1" xmlns="http://www.w3.org/2000/svg" xmlns:xlink="http://www.w3.org/1999/xlink" x="0px" y="0px"
	 viewBox="-499 373 24 24" style="enable-background:new -499 373 24 24;" xml:space="preserve">
<style type="text/css">
	.st0{fill:#FFFFFF;}
</style>
<title>Untitled-1</title>
<path class="st0" d="M-487,380.6c-2.4,0-4.4,2-4.4,4.4c0,2.4,2,4.4,4.4,4.4c2.3,0,4.3-1.8,4.4-4.2c0.1-2.4-1.8-4.4-4.2-4.5
	C-486.9,380.6-486.9,380.6-487,380.6L-487,380.6z M-477.3,383.9c-0.5-4.5-4.1-8.1-8.6-8.6V373h-2.2v2.3c-4.6,0.4-8.2,4-8.6,8.6h-2.3
	v2.2h2.3c0.5,4.5,4.1,8.1,8.6,8.6v2.3h2.2v-2.3c4.5-0.5,8.1-4.1,8.6-8.6h2.3v-2.2H-477.3L-477.3,383.9z M-487,392.6
	c-4.2,0-7.6-3.3-7.6-7.5c0-0.1,0-0.1,0-0.2c0.1-4.1,3.4-7.5,7.6-7.6c4.2,0,7.7,3.3,7.7,7.6C-479.3,389.1-482.7,392.6-487,392.6
	C-487,392.6-487,392.6-487,392.6L-487,392.6z"/>
</svg>
