<?xml version="1.0" encoding="utf-8"?>
<!-- Generator: Adobe Illustrator 19.1.0, SVG Export Plug-In . SVG Version: 6.00 Build 0)  -->
<svg version="1.1" id="Layer_2" xmlns="http://www.w3.org/2000/svg" xmlns:xlink="http://www.w3.org/1999/xlink" x="0px" y="0px"
	 viewBox="0 0 62.4 48" style="enable-background:new 0 0 62.4 48;" xml:space="preserve">
<path d="M4.8,0C2.2,0,0,2.2,0,4.8l0,0v38.4C0,45.8,2.2,48,4.8,48l0,0h52.8c2.7,0,4.8-2.2,4.8-4.8l0,0V4.8c0-2.6-2.2-4.8-4.8-4.8l0,0
	H4.8z M4.8,4.8h52.8v38.3H4.8V4.8z M14.4,14.4c0,2.6,2.1,4.8,4.8,4.8l0,0c2.6,0,4.8-2.2,4.8-4.8l0,0c0-2.6-2.2-4.8-4.8-4.8l0,0
	C16.5,9.6,14.4,11.8,14.4,14.4 M38.3,28.7l-9.6-4.8L9.7,33.5v4.9h43.1V23.2L48,14.4L38.3,28.7z"/>
</svg>
