<?xml version="1.0" encoding="utf-8"?>
<!-- Generator: Adobe Illustrator 19.1.0, SVG Export Plug-In . SVG Version: 6.00 Build 0)  -->
<svg version="1.1" id="Layer_1" xmlns="http://www.w3.org/2000/svg" xmlns:xlink="http://www.w3.org/1999/xlink" x="0px" y="0px"
	 viewBox="-522.1 509.7 42 42" style="enable-background:new -522.1 509.7 42 42;" xml:space="preserve">
<style type="text/css">
	.st0{fill:url(#SVGID_1_);}
	.st1{fill:#3E7B3C;}
	.st2{fill:#FFFFFF;}
</style>
<g>
	
		<linearGradient id="SVGID_1_" gradientUnits="userSpaceOnUse" x1="-501.0551" y1="262.7982" x2="-501.0551" y2="220.7982" gradientTransform="matrix(1 0 0 -1 0 772.534)">
		<stop  offset="0" style="stop-color:#98C34C"/>
		<stop  offset="1" style="stop-color:#3F8E43"/>
	</linearGradient>
	<path class="st0" d="M-486.7,523.8c0-7.8-6.4-14-14.4-14c-7.9,0-14.4,6.3-14.4,14c0,7.4,14.4,28,14.4,28S-486.7,531.2-486.7,523.8z
		"/>
</g>
<ellipse class="st1" cx="-501.1" cy="523.4" rx="10.8" ry="10.5"/>
<path class="st2" d="M-507.4,519.1l-0.9,0.1l0.2,2.4l2,0.6L-507.4,519.1z M-494.4,526.3l-4.7-1.4l-3.1-7.6l-1.2,0.2l0.2,6.2l-5-1.5
	c0.2,0.6,0.7,1.5,2.1,2.8l10.3,3.1c0.8,0.2,2.2,0.2,2.1-0.8C-493.6,526.8-493.9,526.4-494.4,526.3z M-502,526.8
	c-0.3,0-0.5,0.2-0.5,0.5c0,0.3,0.2,0.5,0.5,0.5c0.3,0,0.5-0.2,0.5-0.5C-501.5,527.1-501.8,526.8-502,526.8z"/>
</svg>
