<?xml version="1.0" encoding="utf-8"?>
<!-- Generator: Adobe Illustrator 19.1.0, SVG Export Plug-In . SVG Version: 6.00 Build 0)  -->
<svg version="1.1" id="Layer_1" xmlns="http://www.w3.org/2000/svg" xmlns:xlink="http://www.w3.org/1999/xlink" x="0px" y="0px"
	 viewBox="-397.4 371.6 42 42" style="enable-background:new -397.4 371.6 42 42;" xml:space="preserve">
<style type="text/css">
	.st0{fill:url(#SVGID_1_);}
	.st1{fill:#2C8140;}
	.st2{fill:#FFFFFF;}
</style>
<g>
	<g>
		
			<linearGradient id="SVGID_1_" gradientUnits="userSpaceOnUse" x1="-376.4111" y1="997.85" x2="-376.4111" y2="1039.85" gradientTransform="matrix(1 0 0 1 0 -626.274)">
			<stop  offset="0" style="stop-color:#9AC44D"/>
			<stop  offset="1" style="stop-color:#409043"/>
		</linearGradient>
		<path class="st0" d="M-362,385.6c0-7.8-6.4-14-14.4-14s-14.4,6.3-14.4,14c0,7.4,14.4,28,14.4,28S-362,393-362,385.6z"/>
	</g>
	<ellipse class="st1" cx="-376.4" cy="385.3" rx="10.8" ry="10.5"/>
	<path class="st2" d="M-384.2,384.7l-0.7,0.6l1.5,1.9l2-0.6L-384.2,384.7z M-367.9,384.1c-0.2-0.7-1.4-0.6-2.1-0.4l-4.1,1.2
		l-6.9-4.5l-0.9,0.8l3.7,5l-5,1.5c0.5,0.4,1.4,0.9,3.4,1.1l10.4-3.1C-368.6,385.4-367.7,384.8-367.9,384.1z"/>
</g>
</svg>
