<?xml version="1.0" encoding="utf-8"?>
<!-- Generator: Adobe Illustrator 19.1.0, SVG Export Plug-In . SVG Version: 6.00 Build 0)  -->
<!DOCTYPE svg PUBLIC "-//W3C//DTD SVG 1.1//EN" "http://www.w3.org/Graphics/SVG/1.1/DTD/svg11.dtd">
<svg version="1.1" id="Layer_1" xmlns="http://www.w3.org/2000/svg" xmlns:xlink="http://www.w3.org/1999/xlink" x="0px" y="0px"
	 width="61px" height="61.391922px" viewBox="0 0 61 61.391922" style="enable-background:new 0 0 61 61.391922;"
	 xml:space="preserve">
<style type="text/css">
	.st0{fill:#FFFFFF;}
</style>
<g>
	<path class="st0" d="M55.7351875,26.6416569c-0.5619202-1.5465546-2.1774979-2.5854702-4.0192451-2.5854702
		c-0.5274734,0-1.036335,0.0878448-1.5127182,0.2610188c-0.4424858,0.1608791-0.9805565,0.4806652-1.489418,0.8800774
		c-0.7643089-1.6854877-2.462162-2.7947903-4.3324432-2.7947903c-0.5546417,0-1.1013527,0.0968132-1.6261101,0.2875843
		c-1.0688744,0.3891525-1.9161377,1.1298866-2.4574738,2.0464458c-0.8877449-1.050602-2.2120094-1.6935043-3.6364784-1.6935043
		c-0.5539703,0-1.1013451,0.09688-1.6261101,0.2876511c-1.1173096,0.4070206-2.1423073,1.1676617-2.8263779,2.1655426
		l-4.1996918-11.5369873c-0.8100986-2.2268906-2.4402103-3.5561085-4.3615875-3.5561085
		c-0.5082493,0-1.0277061,0.0951815-1.5439034,0.2833033c-2.5019054,0.9102411-3.5847054,3.5846424-2.5742607,6.3615637
		l9.8756847,26.943552l-5.0814571-2.5207939c-0.7490978-0.3493385-1.5425529-0.5264549-2.3579502-0.5264549
		c-2.1363964,0-4.1035576,1.2595825-5.0125084,3.2091484c-0.6295872,1.3498001-0.6979256,2.863472-0.1917229,4.2627373
		c0.5062103,1.4019127,1.5286179,2.5205193,2.828352,3.1245613c0.0464687,0.0249329,4.7285233,2.5265007,11.2098618,5.548542
		l1.0529194,0.5004845c4.1552525,1.9516029,8.0796566,3.8021622,12.6290264,3.8021622h0.0006104
		c2.1655426,0,4.3344116-0.4131813,6.6293755-1.2484856c8.0623398-2.9348106,9.2871361-7.9664688,9.8510933-12.8648376
		C61.5046692,42.5663795,55.9714203,27.2891788,55.7351875,26.6416569z M58.9377441,47.0421143
		c-0.5308037,4.6117363-1.5386047,8.6626091-8.5228233,11.2050056c-2.0680504,0.7526932-4.0086479,1.1448021-5.9327354,1.1448021
		H44.481575c-4.0942497,0-7.6477699-1.6955109-11.7625465-3.6278191l-1.0582104-0.5087433
		c-6.4263077-2.9969063-11.0632515-5.4801712-11.1594448-5.5299034c-0.854538-0.3987312-1.5020599-1.110611-1.8232059-1.9989777
		c-0.321146-0.8887024-0.2780056-1.8520164,0.1220856-2.7102165c0.5844746-1.2536011,1.7973137-2.0329971,3.1653938-2.0329971
		c0.5155163,0,1.0190773,0.1123657,1.4735184,0.324337l7.3491859,3.6455116
		c0.3735275,0.1854744,0.8220577,0.1249733,1.1332169-0.1543236c0.3104801-0.2783432,0.4206066-0.7179565,0.2766438-1.109417
		L21.44347,16.3490562c-0.4816837-1.3256168-0.415987-3.1023588,1.356802-3.7472315
		c0.2925434-0.1064596,0.5778847-0.1605453,0.8472614-0.1605453c1.0276394,0,1.9419556,0.8279638,2.4468079,2.2149296
		l6.5066109,17.8753853c0.1930161,0.5291023,0.7795334,0.8017426,1.305645,0.6089973
		c0.5294456-0.1927414,0.8021507-0.7772141,0.6090698-1.3063221l-0.9294701-2.5536747
		c-0.7669563-2.1075211,0.8637733-3.5674534,2.1462479-4.0345325c0.30056-0.1094475,0.6130791-0.1648865,0.9288559-0.1648865
		c1.1385155,0,2.1655426,0.7188587,2.5550346,1.7887554l1.26651,3.4818516l0.0112762,0.0301647
		c0.1930847,0.5291042,0.7795982,0.8014698,1.3057137,0.6090679c0.5287666-0.1927414,0.8014717-0.7772846,0.6090698-1.3060493
		l-0.5951424-1.636776c-0.483654-1.3942356,0.2508278-2.9377995,1.6380653-3.4427204
		c0.30056-0.1094475,0.6130791-0.1648178,0.9295349-0.1648178c1.1378365,0,2.1642609,0.7191963,2.5543556,1.7893658
		l1.4894867,4.0925503l0.0199051,0.0560493c0.1924019,0.5287666,0.7749062,0.8024902,1.3063202,0.6090698
		c0.5287743-0.1924019,0.8014717-0.7775574,0.6090698-1.3063908l-0.8870735-2.4372272
		c0.3144875-0.3263779,0.9759445-0.8475342,1.4264374-1.0114021c0.252121-0.0919209,0.5267982-0.1383228,0.8160782-0.1383228
		c0.9726105,0,1.8378067,0.5115089,2.1045418,1.2442951C55.3808899,31.6262417,59.3424568,43.5241165,58.9377441,47.0421143z"/>
	<path class="st0" d="M6.5427766,6.4316311c11.9317112-2.7457371,24.402792-2.3397365,36.173954,1.2164402
		c0.6966438,0.2096581,1.6022644-0.2096586,1.8152504-0.8545313c0.2129898-0.6455522-0.2991982-1.5273271-1.0290642-1.7465649
		C31.2773056,1.3531554,18.3252258,0.9318004,5.9337072,3.7833858C5.7048225,2.7901919,5.4766169,1.796998,5.248343,0.8038041
		C5.1554713,0.4030345,4.9842658,0.0597409,4.5125685,0.0089229c-0.4710178-0.0500707-0.7590096,0.1108078-1.018399,0.4770646
		c-1.2095103,1.7067527-2.3281126,3.4417-3.3551462,5.1968927c-0.3005602,0.5148382-0.0955216,1.1268969,0.4392228,1.3726983
		c1.8265282,0.8423028,3.5833516,1.7555327,5.2659183,2.7318101C6.20506,9.996707,6.4897227,10.0162735,6.8313799,9.7727823
		C7.1724315,9.5296297,7.1684289,9.1508045,7.07623,8.748744C6.8983669,7.9764862,6.720572,7.2042284,6.5427766,6.4316311z"/>
</g>
</svg>
