<?xml version="1.0" encoding="utf-8"?>
<!-- Generator: Adobe Illustrator 18.1.1, SVG Export Plug-In . SVG Version: 6.00 Build 0)  -->
<svg version="1.1" id="Layer_1" xmlns="http://www.w3.org/2000/svg" xmlns:xlink="http://www.w3.org/1999/xlink" x="0px" y="0px"
	 viewBox="0 0 612 792" style="enable-background:new 0 0 612 792;" xml:space="preserve">
<style type="text/css">
	.st0{fill:#FFFFFF;}
</style>
<g id="show_x5F_thumbnails_x5F_with_x5F_lines_1_">
	<path class="st0" d="M612.001709,621.1456299c0,8.8578491-7.223999,16.0818481-16.0818481,16.0818481H176.9017792
		c-8.8567963,0-16.0818329-7.223999-16.0818329-16.0818481v-64.3273315c0-8.8578491,7.2250366-16.0817871,16.0818329-16.0817871
		h419.0180664c8.8578491,0,16.0818481,7.223938,16.0818481,16.0817871V621.1456299z M96.4926453,621.1456299
		c0,8.8578491-7.2239532,16.0818481-16.0818176,16.0818481H16.0835133c-8.8567982,0-16.0818291-7.223999-16.0818291-16.0818481
		v-64.3273315c0-8.8578491,7.2250266-16.0817871,16.0818291-16.0817871h64.3273163
		c8.8578644,0,16.0818176,7.223938,16.0818176,16.0817871V621.1456299z M612.001709,428.1636963
		c0,8.8578796-7.223999,16.0818481-16.0818481,16.0818481H176.9017792c-8.8567963,0-16.0818329-7.2239685-16.0818329-16.0818481
		v-64.327301c0-8.8578796,7.2250366-16.0818176,16.0818329-16.0818176h419.0180664
		c8.8578491,0,16.0818481,7.223938,16.0818481,16.0818176V428.1636963z M96.4926453,428.1636963
		c0,8.8578796-7.2239532,16.0818481-16.0818176,16.0818481H16.0835133c-8.8567982,0-16.0818291-7.2239685-16.0818291-16.0818481
		v-64.327301c0-8.8578796,7.2250266-16.0818176,16.0818291-16.0818176h64.3273163
		c8.8578644,0,16.0818176,7.223938,16.0818176,16.0818176V428.1636963z M612.001709,235.1817932
		c0,8.8578644-7.223999,16.0818176-16.0818481,16.0818176H176.9017792c-8.8567963,0-16.0818329-7.2239532-16.0818329-16.0818176
		v-64.3273163c0-8.8578644,7.2250366-16.0818176,16.0818329-16.0818176h419.0180664
		c8.8578491,0,16.0818481,7.2239532,16.0818481,16.0818176V235.1817932z M96.4926453,235.1817932
		c0,8.8578644-7.2239532,16.0818176-16.0818176,16.0818176H16.0835133c-8.8567982,0-16.0818291-7.2239532-16.0818291-16.0818176
		v-64.3273163c0-8.8578644,7.2250266-16.0818176,16.0818291-16.0818176h64.3273163
		c8.8578644,0,16.0818176,7.2239532,16.0818176,16.0818176V235.1817932z"/>
</g>
</svg>
